<svg width="24" height="23" viewBox="0 0 24 23" fill="none" xmlns="http://www.w3.org/2000/svg">
  <path d="M9.86745 13.0885C7.59329 10.9563 7.07979 8.82413 6.96395 7.96988C6.93158 7.73368 7.01828 7.4968 7.19851 7.329L9.03887 5.60432C9.30959 5.35066 9.35763 4.95534 9.15472 4.65108L6.22452 0.385216C6.00003 0.0483096 5.53908 -0.0732832 5.16015 0.104445L0.456144 2.18153C0.149716 2.323 -0.0305214 2.62825 0.00427021 2.94682C0.250747 5.14214 1.27157 10.5388 6.92821 15.8426C12.5849 21.1465 18.3401 22.1032 20.6828 22.3343C21.0226 22.3669 21.3482 22.1979 21.4991 21.9106L23.7145 17.5003C23.9034 17.1458 23.7745 16.7148 23.4167 16.5039L18.8667 13.7575C18.5424 13.567 18.1208 13.6117 17.85 13.8653L16.0105 15.5907C15.8315 15.7597 15.5788 15.841 15.3269 15.8107C14.4158 15.7021 12.1416 15.2206 9.86745 13.0885Z" fill="white"/>
  <path d="M18.8979 11.9399C18.4441 11.9399 18.0763 11.5951 18.0763 11.1696C18.0724 7.98046 15.3159 5.39601 11.9144 5.3924C11.4606 5.3924 11.0928 5.04753 11.0928 4.62211C11.0928 4.19668 11.4606 3.85181 11.9144 3.85181C16.223 3.85626 19.7147 7.12996 19.7195 11.1696C19.7195 11.5951 19.3516 11.9399 18.8979 11.9399Z" fill="white"/>
  <path d="M23.0058 11.9395C22.5521 11.9395 22.1843 11.5946 22.1843 11.1692C22.1779 5.85394 17.5836 1.54653 11.9144 1.54058C11.4606 1.54058 11.0928 1.19571 11.0928 0.770291C11.0928 0.344871 11.4606 0 11.9144 0C18.4908 0.00679238 23.8202 5.00345 23.8274 11.1692C23.8274 11.3735 23.7409 11.5694 23.5868 11.7139C23.4327 11.8584 23.2237 11.9395 23.0058 11.9395Z" fill="white"/>
</svg>
