<svg width="20" height="20" viewBox="0 0 20 20" fill="none" xmlns="http://www.w3.org/2000/svg">
  <path d="M18.0045 8.27685L10.504 1.45793C10.3659 1.33242 10.186 1.26287 9.99946 1.26288C9.81287 1.26288 9.63299 1.33244 9.49493 1.45797L1.99545 8.27685C1.91814 8.34715 1.85637 8.43282 1.8141 8.52838C1.77183 8.62394 1.75 8.72727 1.75 8.83176V17.5C1.75 17.6989 1.82902 17.8897 1.96967 18.0304C2.11032 18.171 2.30109 18.25 2.5 18.25H17.5C17.6989 18.25 17.8897 18.171 18.0303 18.0304C18.171 17.8897 18.25 17.6989 18.25 17.5V8.83179C18.25 8.7273 18.2282 8.62395 18.1859 8.52839C18.1436 8.43282 18.0818 8.34714 18.0045 8.27685Z" stroke="#051EC4" stroke-width="2" stroke-linecap="round" stroke-linejoin="round"/>
</svg>
