<svg height="512pt" viewBox="-113 0 512 512.00035" width="512pt" xmlns="http://www.w3.org/2000/svg"><path d="m69.757812 198.644531c-34.707031 40.246094-30.902343 101.707031 10.125 137.09375 66.117188 57.027344 168.164063 4.117188 160.28125-82.433593-.375-4.136719-4.03125-7.191407-8.171874-6.808594-4.140626.375-7.1875 4.035156-6.8125 8.175781 2.101562 23.0625-5.597657 45.894531-21.273438 62.988281-.210938-1.019531 2.59375-28.003906-21.117188-48.375 19.984376-26.492187 8.691407-65.253906-23.230468-76.34375-31.898438-11.210937-65.558594 12.636719-65.558594 46.632813 0 10.75 3.519531 21.195312 9.957031 29.722656-13.460937 11.570313-21.125 28.125-21.125 45.847656v2.539063c-47.816406-51.902344-11.390625-137.707032 60.574219-137.707032 32.207031 0 61.515625 18.933594 74.773438 48.15625 1.714843 3.785157 6.171874 5.460938 9.960937 3.746094 3.78125-1.71875 5.460937-6.175781 3.742187-9.960937-28.988281-63.90625-115.457031-77.375-162.125-23.273438zm45.636719 80.722657c5.378907-4.203126 6.4375-12.164063 1.867188-17.527344-5.296875-6.199219-8.214844-14.105469-8.214844-22.265625 0-23.539063 23.292969-40.246094 45.546875-32.429688 22.484375 7.8125 30.730469 36.144531 14.890625 54.679688-4.574219 5.339843-3.53125 13.320312 1.847656 17.523437 11.136719 8.730469 17.527344 21.773438 17.527344 35.796875v15.390625c-27.410156 18.25-63.453125 18.394532-90.980469.007813 1.152344-7.65625-5.507812-33.101563 17.515625-51.175781zm0 0"/><path d="m237.957031 422.183594c0-4.15625-3.367187-7.523438-7.523437-7.523438h-174.128906c-4.15625 0-7.523438 3.367188-7.523438 7.523438s3.367188 7.523437 7.523438 7.523437h174.128906c4.15625 0 7.523437-3.367187 7.523437-7.523437zm0 0"/><path d="m84.957031 453.785156c-4.15625 0-7.527343 3.367188-7.527343 7.523438s3.371093 7.523437 7.527343 7.523437h116.824219c4.15625 0 7.523438-3.367187 7.523438-7.523437s-3.367188-7.523438-7.523438-7.523438zm0 0"/><path d="m230.433594 375.199219h-174.128906c-4.15625 0-7.523438 3.371093-7.523438 7.527343 0 4.152344 3.367188 7.523438 7.523438 7.523438h174.128906c4.15625 0 7.523437-3.371094 7.523437-7.523438 0-4.15625-3.367187-7.527343-7.523437-7.527343zm0 0"/><path d="m238.519531 77.261719h-59.871093v-15.460938c0-4.15625-3.367188-7.523437-7.523438-7.523437s-7.523438 3.367187-7.523438 7.523437v15.460938h-40.464843v-62.214844h40.464843v16.65625c0 4.15625 3.367188 7.527344 7.523438 7.527344s7.523438-3.371094 7.523438-7.527344v-22.089844c0-5.300781-4.3125-9.613281-9.613282-9.613281h-51.332031c-5.300781 0-9.613281 4.3125-9.613281 9.613281v67.648438h-59.875c-26.585938 0-48.214844 21.628906-48.214844 48.214843v338.28125c0 11.023438 3.851562 21.816407 10.84375 30.390626 2.625 3.21875 7.363281 3.703124 10.585938 1.078124 3.222656-2.625 3.703124-7.363281 1.078124-10.585937-4.808593-5.898437-7.457031-13.316406-7.460937-20.882813v-338.28125c0-18.289062 14.878906-33.167968 33.167969-33.167968h190.304687c18.289063 0 33.167969 14.878906 33.167969 33.167968v338.28125c0 18.289063-14.878906 33.164063-33.167969 33.164063-201.328125-.125-190.730469.308594-195.203125-.359375-4.105468-.617188-7.9375 2.214844-8.554687 6.324219-.613281 4.109375 2.21875 7.941406 6.328125 8.554687 6.414062.960938-3.082032.347656 197.429687.53125 26.585938 0 48.214844-21.628906 48.214844-48.214844v-338.28125c0-26.585937-21.628906-48.214843-48.214844-48.214843zm0 0"/><path d="m171.625 129.246094c0-15.582032-12.675781-28.257813-28.257812-28.257813-15.578126 0-28.257813 12.675781-28.257813 28.257813 0 15.582031 12.679687 28.257812 28.257813 28.257812 15.582031 0 28.257812-12.675781 28.257812-28.257812zm-41.464844 0c0-7.28125 5.921875-13.207032 13.207032-13.207032 7.285156 0 13.210937 5.921876 13.210937 13.207032s-5.925781 13.210937-13.210937 13.210937c-7.28125 0-13.207032-5.925781-13.207032-13.210937zm0 0"/></svg>