<svg width="22" height="16" viewBox="0 0 22 16" fill="none" xmlns="http://www.w3.org/2000/svg">
  <path fill-rule="evenodd" clip-rule="evenodd" d="M14 8C16.21 8 18 6.21 18 4C18 1.79 16.21 0 14 0C11.79 0 10 1.79 10 4C10 6.21 11.79 8 14 8ZM5 6V4C5 3.45 4.55 3 4 3C3.45 3 3 3.45 3 4V6H1C0.45 6 0 6.45 0 7C0 7.55 0.45 8 1 8H3V10C3 10.55 3.45 11 4 11C4.55 11 5 10.55 5 10V8H7C7.55 8 8 7.55 8 7C8 6.45 7.55 6 7 6H5ZM6 14C6 11.34 11.33 10 14 10C16.67 10 22 11.34 22 14V15C22 15.55 21.55 16 21 16H7C6.45 16 6 15.55 6 15V14Z" fill="#323037"/>
</svg>
