<svg width="24" height="24" viewBox="0 0 24 24" fill="none" xmlns="http://www.w3.org/2000/svg">
  <path fill-rule="evenodd" clip-rule="evenodd" d="M3.63 5.04503C3.24 4.65503 3.24 4.02503 3.63 3.63503C4.03 3.24503 4.66 3.24503 5.05 3.63503L20.36 18.955C20.75 19.345 20.75 19.975 20.36 20.365C19.97 20.755 19.34 20.755 18.95 20.365L17.61 19.025C16.94 19.565 16.19 20.005 15.39 20.335C14.73 20.605 14 20.145 14 19.425C14 19.035 14.22 18.655 14.58 18.505C15.16 18.275 15.69 17.965 16.18 17.595L12 13.415V17.585C12 18.475 10.92 18.925 10.29 18.295L7 15.005H4C3.45 15.005 3 14.555 3 14.005V10.005C3 9.45503 3.45 9.00503 4 9.00503H7L7.29 8.70503L3.63 5.04503ZM18.59 14.345C18.85 13.615 19 12.825 19 12.005C19 9.06503 17.18 6.54503 14.61 5.50503C14.25 5.36503 14 5.03503 14 4.65503V4.46503C14 3.83503 14.63 3.37503 15.22 3.60503C18.6 4.89503 21 8.17503 21 12.005C21 13.395 20.68 14.705 20.12 15.875L18.59 14.345ZM10.29 5.71503L10.12 5.88503L12 7.76503V6.41503C12 5.52503 10.92 5.08503 10.29 5.71503ZM14 7.97503C15.48 8.71503 16.5 10.235 16.5 12.005C16.5 12.085 16.49 12.165 16.48 12.245L14 9.76503V7.97503Z" fill="#051EC4"/>
</svg>
