<svg width="694" height="649" viewBox="0 0 694 649" fill="none" xmlns="http://www.w3.org/2000/svg">
  <g clip-path="url(#clip0)">
    <path d="M680.04 1.8291H559.222V198.209H680.04V1.8291Z" fill="#FFE2B1"/>
    <path d="M625.199 21.4504C610.242 17.127 578.5 16.1293 574.511 36.9146C573.182 43.3996 576.506 50.0509 581.159 54.5406C591.296 64.0187 605.09 65.8478 617.388 71.0025C631.181 76.6561 643.812 86.6331 650.625 100.268C656.442 112.074 657.771 126.873 651.124 138.679C631.846 173.765 580.66 150.652 590.632 112.241C593.789 100.102 603.096 90.6238 613.732 84.4714C621.542 79.9818 653.451 69.3397 652.453 42.9008" stroke="#B9A6BC" stroke-width="9.6543" stroke-miterlimit="10" stroke-linecap="round" stroke-linejoin="round"/>
    <path d="M527.148 0H406.329V196.379H527.148V0Z" fill="#FFE2B1"/>
    <path d="M142.756 461.6H359.298" stroke="#C16425" stroke-width="4.5432" stroke-miterlimit="10" stroke-linecap="round" stroke-linejoin="round"/>
    <path d="M349.327 296.315H150.068C140.595 296.315 132.784 288.5 132.784 279.022V115.4H367.774V277.691C367.774 288.001 359.464 296.315 349.327 296.315Z" fill="#D4C4D6"/>
    <path d="M367.774 270.375H132.784V100.933C132.784 95.9449 136.773 91.9541 141.758 91.9541H358.301C363.453 91.9541 367.608 96.1112 367.608 101.266V270.375H367.774Z" fill="#2D1A14"/>
    <path d="M131.455 317.1H379.074" stroke="#C16425" stroke-width="4.5432" stroke-miterlimit="10" stroke-linecap="round" stroke-linejoin="round"/>
    <path d="M118.658 538.09L179.483 318.431L236.153 535.097" stroke="#C16425" stroke-width="4.5432" stroke-miterlimit="10" stroke-linecap="round" stroke-linejoin="round"/>
    <path d="M275.872 538.09L336.696 318.431L393.366 535.097" stroke="#C16425" stroke-width="4.5432" stroke-miterlimit="10" stroke-linecap="round" stroke-linejoin="round"/>
    <path d="M257.259 287.003C259.829 287.003 261.912 284.919 261.912 282.347C261.912 279.776 259.829 277.692 257.259 277.692C254.689 277.692 252.605 279.776 252.605 282.347C252.605 284.919 254.689 287.003 257.259 287.003Z" fill="#2D1A14"/>
    <path d="M270.886 296.149H242.136V309.119H270.886V296.149Z" fill="#B9A6BC"/>
    <path d="M277.035 313.442H234.491C232.996 313.442 231.666 312.112 231.666 310.615C231.666 309.119 232.996 307.789 234.491 307.789H277.035C278.531 307.789 279.86 309.119 279.86 310.615C279.86 312.278 278.531 313.442 277.035 313.442Z" fill="#D4C4D6"/>
    <path d="M368.605 105.589H132.452V260.398H368.605V105.589Z" fill="#C3CAFD"/>
    <path d="M357.636 387.771H311.935V457.775H357.636V387.771Z" fill="#FED875"/>
    <path d="M342.015 389.267V457.942" stroke="#2D1A14" stroke-width="1.1464" stroke-miterlimit="10" stroke-linecap="round" stroke-linejoin="round"/>
    <path d="M329.384 387.771H283.683V457.775H329.384V387.771Z" fill="#F5A2A2"/>
    <path d="M313.763 389.267V457.942" stroke="#2D1A14" stroke-width="1.1464" stroke-miterlimit="10" stroke-linecap="round" stroke-linejoin="round"/>
    <path d="M298.474 387.937H253.104V457.775H298.474V387.937Z" fill="#A595FA"/>
    <path d="M282.852 389.267V458.274" stroke="#2D1A14" stroke-width="1.1358" stroke-miterlimit="10" stroke-linecap="round" stroke-linejoin="round"/>
    <path d="M214.881 120.887H145.913V248.426H214.881V120.887Z" fill="#04189D"/>
    <path d="M181.643 184.075C194.677 184.075 205.242 173.503 205.242 160.462C205.242 147.422 194.677 136.85 181.643 136.85C168.61 136.85 158.045 147.422 158.045 160.462C158.045 173.503 168.61 184.075 181.643 184.075Z" fill="white"/>
    <path d="M180.812 158.633V184.075C181.145 184.075 181.477 184.075 181.81 184.075C194.772 184.075 205.408 173.433 205.408 160.463C205.408 159.797 205.408 159.132 205.408 158.633H180.812Z" fill="#C3CAFD"/>
    <path d="M209.065 194.55H154.389V200.204H209.065V194.55Z" fill="#C3CAFD"/>
    <path d="M170.509 194.55H154.389V200.204H170.509V194.55Z" fill="white"/>
    <path d="M208.732 204.527H154.056V210.181H208.732V204.527Z" fill="#009BCF"/>
    <path d="M193.941 204.527H154.056V210.181H193.941V204.527Z" fill="white"/>
    <path d="M208.4 214.671H153.724V220.324H208.4V214.671Z" fill="#009BCF"/>
    <path d="M173.168 214.671H153.724V220.324H173.168V214.671Z" fill="white"/>
    <path d="M159.042 240.112C162.346 240.112 165.025 237.432 165.025 234.126C165.025 230.82 162.346 228.139 159.042 228.139C155.738 228.139 153.059 230.82 153.059 234.126C153.059 237.432 155.738 240.112 159.042 240.112Z" fill="#C3CAFD"/>
    <path d="M181.643 240.112C184.948 240.112 187.626 237.432 187.626 234.126C187.626 230.82 184.948 228.139 181.643 228.139C178.339 228.139 175.661 230.82 175.661 234.126C175.661 237.432 178.339 240.112 181.643 240.112Z" fill="#C3CAFD"/>
    <path d="M202.749 240.112C206.054 240.112 208.732 237.432 208.732 234.126C208.732 230.82 206.054 228.139 202.749 228.139C199.445 228.139 196.767 230.82 196.767 234.126C196.767 237.432 199.445 240.112 202.749 240.112Z" fill="#C3CAFD"/>
    <path d="M329.883 119.723H226.015V215.835H329.883V119.723Z" fill="#FFE2B1"/>
    <path d="M278.032 119.723H226.015V167.613H278.032V119.723Z" fill="#B9A6BC"/>
    <path d="M329.883 119.89H277.866V167.779H329.883V119.89Z" fill="#383138"/>
    <path d="M329.883 167.945H277.866V215.668H329.883V167.945Z" fill="#FCA09E"/>
    <path d="M368.771 136.352C365.946 135.853 362.954 149.987 362.954 149.987C362.954 149.987 350.324 124.878 347 126.375C346.834 126.375 346.834 126.541 346.668 126.707C346.668 127.705 346.668 128.703 346.502 129.534C347.665 135.354 353.98 146.827 353.98 146.827C353.98 146.827 351.654 143.003 348.496 139.012C348.829 142.338 348.662 145.83 348.164 149.322C348.496 149.82 348.829 150.153 348.829 150.153C348.829 150.153 348.662 149.82 348.164 149.488C347.333 154.476 345.837 159.465 344.175 164.121C349.826 170.938 358.634 180.915 358.634 180.915L368.439 167.28C368.439 167.114 373.424 137.183 368.771 136.352Z" fill="#75291F"/>
    <path d="M343.843 146.495C341.849 146.162 339.854 147.825 339.19 149.654C338.359 151.65 338.691 153.811 339.19 155.807C340.353 160.296 343.178 164.287 347 166.947C349.493 168.777 352.983 169.774 355.642 168.111C357.803 166.615 358.467 163.788 358.8 161.128C359.298 154.809 358.966 142.504 353.316 138.347C348.164 134.689 338.525 141.34 343.843 146.495Z" fill="#75291F"/>
    <path d="M389.212 561.203C385.057 559.041 381.567 555.05 378.742 551.06C376.416 555.217 373.258 558.542 369.103 560.704C363.121 563.863 356.141 564.362 349.493 566.191C336.697 569.85 325.562 579.161 319.579 591.134H405.997V561.369C400.845 564.196 394.696 564.196 389.212 561.203Z" fill="#EAD4C5"/>
    <path d="M389.212 561.203C385.057 559.041 381.567 555.05 378.742 551.06C376.416 555.217 373.092 558.542 369.103 560.704C363.121 563.863 356.141 564.362 349.493 566.191C336.697 569.85 325.562 579.161 319.579 591.134H405.997V561.369C400.845 564.196 394.696 564.196 389.212 561.203Z" fill="#EAD4C5"/>
    <path d="M321.574 595.956H405.665C407.991 595.956 409.985 593.961 409.985 591.466C409.985 588.972 407.991 586.977 405.665 586.977H321.574C319.247 586.977 317.253 588.972 317.253 591.466C317.253 593.961 319.081 595.956 321.574 595.956Z" fill="#EAD4C5"/>
    <path d="M571.021 171.936C568.528 175.262 564.872 178.088 560.884 179.086C556.895 180.084 552.408 179.751 548.752 177.922C547.755 177.423 546.758 176.924 545.761 176.259C544.597 175.594 543.434 174.763 542.105 174.098C542.271 173.931 542.271 173.765 542.437 173.599C543.102 172.269 543.933 170.938 544.597 169.608C545.096 168.777 545.428 167.945 545.927 167.114C546.093 166.948 546.093 166.781 546.259 166.615V166.449C546.425 166.282 546.425 165.95 546.592 165.784C546.758 165.617 546.758 165.285 546.924 165.118C547.09 164.952 547.09 164.62 547.256 164.453C547.423 164.287 547.423 163.954 547.589 163.788C547.755 163.622 547.755 163.289 547.921 163.123C549.084 159.964 550.082 156.971 550.58 153.645C550.913 150.818 551.079 148.158 550.58 145.331C551.245 145.165 551.91 144.998 552.741 144.832C554.735 144.333 557.061 143.668 558.89 143.335C559.056 143.335 559.222 143.335 559.554 143.169C560.718 143.003 561.881 142.67 562.878 142.837C564.706 142.837 566.202 145.331 568.03 144.998C567.531 147.825 567.199 150.818 566.867 153.645C566.867 154.476 566.7 155.474 566.7 156.305C566.7 158.633 566.7 160.961 567.033 163.123C567.033 163.289 567.033 163.289 567.033 163.456C567.033 163.622 567.033 163.622 567.033 163.788C567.033 164.121 567.199 164.453 567.199 164.786C567.199 164.952 567.199 164.952 567.199 165.118C567.199 165.285 567.199 165.285 567.199 165.451C567.199 165.617 567.199 165.617 567.199 165.784C567.199 165.95 567.199 165.95 567.365 166.116C567.365 166.282 567.365 166.282 567.531 166.449C567.697 166.781 567.697 167.114 567.864 167.28C567.864 167.446 567.864 167.446 568.03 167.613C568.03 167.779 568.196 167.945 568.196 168.278C568.196 168.444 568.362 168.61 568.528 168.777V168.943C568.528 168.943 568.528 169.109 568.695 169.109V169.275C568.861 169.442 568.861 169.774 569.027 169.941C569.027 169.941 569.027 170.107 569.193 170.107C569.193 170.273 569.359 170.273 569.359 170.439C569.359 170.439 569.359 170.606 569.526 170.606C569.526 170.772 569.692 170.772 569.692 170.938C569.692 170.938 569.692 171.105 569.858 171.105C569.858 171.271 570.024 171.271 570.024 171.437C570.19 171.603 570.19 171.603 570.356 171.77L570.523 171.936L570.689 172.102C570.689 172.102 570.689 172.102 570.855 172.269C570.855 172.269 570.855 172.269 571.021 172.435C570.855 171.77 570.855 171.77 571.021 171.936Z" fill="#75291F"/>
    <path d="M574.844 170.107C571.852 174.264 567.199 177.756 562.047 179.086C557.062 180.416 551.578 179.917 546.758 177.59C545.429 176.924 544.265 176.259 543.102 175.594C541.606 174.763 540.111 173.765 538.615 172.934C538.781 172.767 538.781 172.435 538.947 172.268C539.944 170.606 540.775 169.109 541.606 167.446C542.105 166.449 542.603 165.285 543.268 164.287C543.434 164.121 543.434 163.788 543.601 163.622V163.456C543.767 163.123 543.933 162.79 543.933 162.624C544.099 162.292 544.265 162.125 544.265 161.793C544.431 161.46 544.598 161.128 544.598 160.961C544.764 160.629 544.93 160.296 544.93 160.13C545.096 159.797 545.096 159.465 545.262 159.298H569.36C569.36 159.465 569.36 159.631 569.36 159.631C569.36 159.797 569.36 159.964 569.36 159.964C569.36 160.296 569.526 160.795 569.526 161.128C569.526 161.294 569.526 161.46 569.692 161.46C569.692 161.626 569.692 161.793 569.858 161.793C569.858 161.959 569.858 161.959 570.024 162.125C570.024 162.292 570.024 162.458 570.191 162.624C570.191 162.79 570.191 162.957 570.357 162.957C570.523 163.289 570.523 163.788 570.689 164.121C570.689 164.287 570.855 164.287 570.855 164.453C571.021 164.786 571.022 164.952 571.188 165.285C571.354 165.451 571.354 165.783 571.52 165.95C571.52 165.95 571.52 166.116 571.686 166.116C571.686 166.282 571.852 166.282 571.852 166.449C571.852 166.449 571.852 166.615 572.019 166.615C572.185 166.947 572.351 167.114 572.517 167.446L572.683 167.613C572.683 167.779 572.85 167.779 572.85 167.945C572.85 167.945 572.85 168.111 573.016 168.111C573.016 168.278 573.182 168.278 573.182 168.444C573.182 168.444 573.182 168.61 573.348 168.61C573.514 168.777 573.514 168.943 573.681 168.943C573.847 169.109 573.847 169.275 574.013 169.442L574.179 169.608L574.345 169.774C574.345 169.774 574.345 169.774 574.511 169.941C574.511 169.941 574.511 170.107 574.678 170.107C574.678 169.774 574.678 169.941 574.844 170.107C574.844 169.941 574.844 169.941 574.844 170.107Z" fill="#C2C0F2"/>
    <path d="M537.285 403.734L563.377 402.403C584.15 401.239 600.104 383.281 598.941 362.662L594.786 288.999C593.623 268.213 575.675 252.25 555.067 253.414L528.976 254.911C508.202 256.075 492.248 274.033 493.412 294.652L497.566 368.315C498.563 388.934 516.512 404.898 537.285 403.734Z" fill="#3D5F7C"/>
    <path d="M618.053 240.611C617.886 241.276 617.886 241.941 617.72 242.606C617.554 243.77 617.388 244.934 617.055 246.264C616.557 249.091 616.058 252.084 615.394 255.077C614.895 257.571 614.396 260.066 613.898 262.56C611.571 274.532 609.078 287.502 606.752 299.973C605.921 304.629 605.09 309.451 604.259 313.941C603.927 316.435 603.428 318.93 603.096 321.258C601.766 330.07 600.769 338.218 600.271 345.368C600.271 345.368 600.104 345.368 599.938 345.368H599.772C599.44 345.368 598.775 345.535 597.944 345.535C591.13 346.366 570.855 348.528 569.193 348.694C561.549 349.193 553.738 349.526 545.927 349.692C535.125 349.858 524.323 349.526 513.687 348.195C506.707 347.364 499.228 344.371 495.905 342.874C494.741 342.375 493.91 342.043 493.91 342.043C493.744 341.544 493.744 340.879 493.578 340.38C492.747 335.89 491.584 330.569 490.42 325.248C489.589 321.424 488.759 317.599 487.928 313.775C486.432 306.791 484.936 299.807 483.939 294.153C483.939 293.987 483.939 293.821 483.773 293.655C483.773 293.322 483.607 292.823 483.607 292.491C482.111 282.68 480.449 272.703 479.12 262.56C478.787 260.232 478.455 257.904 478.289 255.576C477.956 252.915 477.79 250.421 477.458 247.761C477.458 247.096 477.292 246.264 477.292 245.599C477.292 244.435 477.125 243.437 477.125 242.273C476.627 234.624 476.627 226.975 477.292 219.326C478.455 206.855 481.114 194.218 488.26 183.742C489.091 182.412 490.088 181.248 490.919 180.25C491.418 179.585 492.082 178.92 492.747 178.421L492.913 178.255L493.079 178.088C494.077 177.257 495.074 176.426 495.905 175.76L496.071 175.594C496.237 175.428 496.403 175.428 496.569 175.262C499.062 173.599 501.721 172.601 504.713 171.936C508.036 171.271 511.526 170.938 515.515 170.938C516.18 170.938 516.844 170.938 517.509 170.938C517.841 170.938 518.34 170.938 518.672 170.938C518.839 170.938 519.005 170.938 519.005 170.938C519.337 170.938 519.669 170.938 520.002 170.938C521.331 170.938 522.661 170.772 523.99 170.772C525.652 170.606 527.48 170.606 529.142 170.439C531.967 170.273 534.793 169.941 537.618 169.774C545.595 169.109 553.738 168.444 561.881 168.111C562.546 168.111 563.377 168.111 564.042 168.111C564.374 168.111 564.706 168.111 565.205 168.111C568.196 168.111 571.188 168.111 574.345 168.278C575.841 168.278 577.17 168.444 578.666 168.61C585.48 169.275 592.294 170.439 598.276 173.1C599.273 173.432 600.271 173.931 601.268 174.43C601.434 174.43 601.434 174.43 601.6 174.596C604.758 176.093 608.248 177.756 611.239 179.751C611.571 179.917 611.904 180.084 612.236 180.416C617.388 183.908 621.709 188.564 623.038 194.717C625.863 208.352 620.379 226.477 618.053 240.611Z" fill="#8696FC"/>
    <path d="M555.732 403.733C546.924 402.736 538.449 399.41 531.469 393.923L555.732 403.733Z" fill="#2D1A14"/>
    <path d="M565.205 114.569C560.884 116.231 559.388 121.22 560.718 125.211C562.047 129.201 565.704 132.194 569.526 134.522C570.357 129.201 570.855 124.712 571.686 119.391C572.019 117.395 572.019 114.901 570.024 114.07C568.861 113.571 566.368 114.07 565.205 114.569Z" fill="#2D1A14"/>
    <path d="M542.105 139.345C542.105 139.511 542.105 139.677 542.105 139.843C542.105 140.01 542.105 140.01 542.105 140.176V140.342C542.105 140.509 542.105 140.675 542.105 140.841V141.007C542.105 141.174 542.105 141.506 542.271 141.673C542.271 142.005 542.271 142.171 542.437 142.504C542.437 142.67 542.437 142.67 542.437 142.837V143.003C542.437 143.169 542.603 143.502 542.603 143.668C542.769 144.167 542.936 144.666 543.102 145.164C543.102 145.331 543.268 145.331 543.268 145.497C543.766 146.495 544.265 147.659 544.93 148.49C545.096 148.656 545.262 148.823 545.428 149.155C545.428 149.322 545.595 149.322 545.595 149.488C545.761 149.654 545.927 149.82 546.093 149.987C546.425 150.319 546.758 150.818 547.256 151.151C547.423 151.317 547.589 151.483 547.755 151.649C548.586 152.315 549.417 152.98 550.248 153.479C550.913 153.811 551.577 154.144 552.408 154.476C552.574 154.476 552.741 154.643 552.907 154.643C553.073 154.643 553.073 154.809 553.239 154.809H553.405H553.572C553.738 154.809 553.904 154.975 554.07 154.975C555.233 155.308 556.397 155.474 557.56 155.474C557.892 155.474 558.059 155.474 558.391 155.474C561.382 155.474 564.208 154.643 566.534 153.146C571.021 150.486 574.345 145.663 574.511 139.843L574.677 136.019L575.176 124.712L575.342 121.22L575.508 116.398C575.508 116.065 575.508 115.899 575.508 115.566C575.508 115.4 575.508 115.234 575.508 115.234C575.508 115.067 575.508 115.067 575.508 114.901C575.508 114.735 575.508 114.735 575.508 114.569V114.402V114.236V114.07C575.508 113.903 575.508 113.903 575.508 113.737C575.508 113.571 575.508 113.571 575.508 113.405V113.238C575.508 113.072 575.508 112.739 575.342 112.573C575.342 112.407 575.342 112.407 575.342 112.241C575.342 112.074 575.342 112.074 575.342 111.908C575.342 111.742 575.342 111.742 575.342 111.575C575.342 111.409 575.342 111.409 575.176 111.243C575.176 111.077 575.176 111.077 575.01 110.91C575.01 110.744 575.01 110.744 574.844 110.578C574.844 110.411 574.677 110.079 574.677 109.913C574.677 109.913 574.677 109.913 574.677 109.746C574.677 109.58 574.511 109.414 574.511 109.247C574.511 109.247 574.511 109.247 574.511 109.081C574.511 108.915 574.345 108.749 574.345 108.582C574.345 108.582 574.345 108.582 574.345 108.416C571.852 103.261 566.7 99.6031 560.551 99.2705C553.738 98.938 547.589 102.929 544.93 108.915C544.099 110.744 543.6 112.739 543.6 114.735L542.437 138.347C542.105 138.846 542.105 139.178 542.105 139.345Z" fill="#75291F"/>
    <path d="M575.01 114.07C576.506 110.245 574.345 105.589 570.855 103.261C567.531 100.767 563.21 100.102 559.056 99.4368C554.901 98.7717 550.746 98.2728 547.09 96.4437C535.125 90.125 535.125 72.4991 525.984 62.5221C523.492 59.8616 520.168 57.8662 516.678 57.8662C514.019 57.8662 511.526 59.0302 509.532 60.8593C502.884 66.5129 501.887 76.6561 504.214 84.9702C507.87 98.7717 519.171 110.411 533.13 113.238C539.446 114.568 546.924 113.737 551.245 109.081C556.231 111.077 561.881 111.409 567.033 109.913L575.01 114.07Z" fill="#2D1A14"/>
    <path d="M548.918 129.368C549.417 135.686 550.248 142.338 554.237 147.326C558.225 152.315 566.368 154.809 571.52 150.984C575.841 147.659 576.339 141.506 576.339 136.019C576.339 129.201 576.339 122.55 576.339 115.732C576.339 113.072 576.173 110.245 574.511 108.416C573.182 107.086 571.188 106.421 569.36 105.922C547.257 101.266 547.755 112.407 548.918 129.368Z" fill="#2D1A14"/>
    <path d="M554.07 140.342C557.65 140.342 560.552 136.843 560.552 132.527C560.552 128.211 557.65 124.712 554.07 124.712C550.491 124.712 547.589 128.211 547.589 132.527C547.589 136.843 550.491 140.342 554.07 140.342Z" fill="#75291F"/>
    <path d="M548.752 126.707C546.426 127.04 544.265 128.536 542.936 130.365C542.437 131.197 541.939 132.028 541.606 133.026C540.277 136.85 540.277 141.174 541.772 144.998C543.268 148.823 546.259 151.982 549.916 153.811C550.747 144.499 550.082 136.019 548.752 126.707Z" fill="#2D1A14"/>
    <path d="M573.182 214.338C567.365 231.132 557.56 246.43 544.93 258.902" stroke="#916547" stroke-width="1.5879" stroke-miterlimit="10" stroke-linecap="round" stroke-linejoin="round"/>
    <path d="M552.242 106.254C551.079 107.585 547.755 112.407 547.09 114.236C546.426 116.065 546.426 117.894 547.09 119.723C547.755 121.386 549.417 122.716 551.245 122.883L552.242 106.254Z" fill="#2D1A14"/>
    <path d="M548.752 126.707L533.297 119.889" stroke="#2D1A14" stroke-width="1.3817" stroke-miterlimit="10" stroke-linecap="round" stroke-linejoin="round"/>
    <path d="M543.6 120.222L533.463 119.224C533.463 119.224 531.635 133.026 541.606 132.86" stroke="#2D1A14" stroke-width="1.3817" stroke-miterlimit="10" stroke-linecap="round" stroke-linejoin="round"/>
    <path d="M392.868 568.353C389.877 568.353 386.885 567.522 384.226 565.859C376.582 561.037 374.255 551.06 379.075 543.411L463.498 408.722C465.825 405.064 469.481 402.403 473.635 401.406L540.941 385.941C549.749 383.946 558.557 389.433 560.552 398.08C562.546 406.893 557.062 415.54 548.254 417.701L487.595 431.669L406.662 560.704C403.67 565.526 398.352 568.353 392.868 568.353Z" fill="#051EC4"/>
    <path d="M554.236 416.038L426.106 433.498L441.561 422.69L331.212 581.988C326.725 588.307 318.084 589.97 311.768 585.48C305.786 581.323 304.124 573.341 307.447 567.189L401.011 397.415C403.836 392.26 408.49 388.768 413.641 387.438L416.467 386.606L541.107 352.186C558.391 347.364 576.505 357.507 581.159 374.967C585.978 392.26 575.841 410.385 558.391 415.041C557.228 415.54 555.732 415.872 554.236 416.038Z" fill="#051EC4"/>
    <path d="M321.241 571.18C317.087 569.018 313.597 565.027 310.771 561.037C308.445 565.194 305.287 568.519 301.132 570.681C295.15 573.84 288.17 574.339 281.522 576.168C268.726 579.827 257.591 589.138 251.609 601.111H338.026V571.346C332.708 574.173 326.725 574.173 321.241 571.18Z" fill="#EAD4C5"/>
    <path d="M321.241 571.18C317.087 569.018 313.597 565.027 310.771 561.037C308.445 565.194 305.121 568.519 301.132 570.681C295.15 573.84 288.17 574.339 281.522 576.168C268.726 579.827 257.591 589.138 251.609 601.111H338.026V571.346C332.708 574.173 326.725 574.173 321.241 571.18Z" fill="#EAD4C5"/>
    <path d="M253.437 605.933H337.528C339.854 605.933 341.848 603.937 341.848 601.443C341.848 598.949 339.854 596.954 337.528 596.954H253.437C251.11 596.954 249.116 598.949 249.116 601.443C249.116 603.937 251.11 605.933 253.437 605.933Z" fill="#EAD4C5"/>
    <path d="M306.783 596.455C306.783 596.455 311.436 577.665 338.525 579.494" stroke="#B7A091" stroke-width="1.0586" stroke-miterlimit="10" stroke-linecap="round" stroke-linejoin="round"/>
    <path d="M609.411 432.999H489.756C478.621 432.999 469.481 423.854 469.481 412.713C469.481 401.572 478.621 392.426 489.756 392.426H609.411C620.545 392.426 629.686 401.572 629.686 412.713C629.686 423.854 620.545 432.999 609.411 432.999Z" fill="#C16425"/>
    <path d="M661.095 413.045H598.941C580.827 413.045 566.036 398.246 566.036 380.121V179.252C566.036 161.128 580.827 146.328 598.941 146.328H661.095C679.21 146.328 694 161.128 694 179.252V379.955C694 398.246 679.21 413.045 661.095 413.045Z" fill="#C16425"/>
    <path d="M526.649 233.46L427.103 281.35L423.945 282.846C414.805 287.336 403.67 283.345 399.349 274.2C399.349 274.2 399.349 274.033 399.183 274.033L355.808 180.915C353.149 175.428 355.642 168.777 361.126 166.282C366.112 163.954 371.762 165.617 374.754 169.941L434.249 253.747L406.495 246.43L497.068 183.409C510.363 174.264 528.477 177.423 537.618 190.726C546.758 204.028 543.6 222.153 530.305 231.299C529.308 231.964 527.979 232.795 526.649 233.46Z" fill="#8696FC"/>
    <path d="M480.283 335.059L522.495 424.851" stroke="#2D1A14" stroke-width="2.6466" stroke-miterlimit="10" stroke-linecap="round" stroke-linejoin="round"/>
    <path d="M515.182 341.71H417.464C409.819 341.71 403.67 335.391 403.67 327.909C403.67 320.26 409.985 314.107 417.464 314.107H515.182C522.827 314.107 528.976 320.426 528.976 327.909C529.142 335.391 522.827 341.71 515.182 341.71Z" fill="#C16425"/>
    <path d="M615.56 438.154H482.277C478.289 438.154 474.965 434.828 474.965 430.837C474.965 426.847 478.289 423.521 482.277 423.521H615.56C619.548 423.521 622.872 426.847 622.872 430.837C622.706 434.828 619.548 438.154 615.56 438.154Z" fill="#2D1A14"/>
    <path d="M610.907 155.64L603.594 161.128C593.955 168.444 588.471 179.751 588.471 191.89V363.493C588.471 373.47 590.798 383.281 595.285 392.094L600.437 402.237" stroke="#964C1B" stroke-width="2.6466" stroke-miterlimit="10" stroke-linecap="round" stroke-linejoin="round"/>
    <path d="M655.445 135.686H629.021C613.067 135.686 599.938 122.55 599.938 106.587C599.938 90.6239 613.067 77.4875 629.021 77.4875H655.445C671.399 77.4875 684.528 90.6239 684.528 106.587C684.361 122.716 671.399 135.686 655.445 135.686Z" fill="#C16425"/>
    <path d="M643.479 129.201V158.135" stroke="#2D1A14" stroke-width="2.6466" stroke-miterlimit="10" stroke-linecap="round" stroke-linejoin="round"/>
    <path d="M646.471 387.937V403.401C646.471 415.207 636.832 424.851 625.032 424.851H615.56" stroke="#2D1A14" stroke-width="2.6466" stroke-miterlimit="10" stroke-linecap="round" stroke-linejoin="round"/>
    <path d="M655.777 397.082H634.671C628.19 397.082 622.872 391.761 622.872 385.276C622.872 378.791 628.19 373.47 634.671 373.47H655.777C662.258 373.47 667.576 378.791 667.576 385.276C667.576 391.761 662.258 397.082 655.777 397.082Z" fill="#2D1A14"/>
    <path d="M618.551 570.681H553.904" stroke="#2D1A14" stroke-width="2.6466" stroke-miterlimit="10" stroke-linecap="round" stroke-linejoin="round"/>
    <path d="M511.692 628.88L556.563 572.011L590.798 627.55" stroke="#2D1A14" stroke-width="2.6466" stroke-miterlimit="10" stroke-linecap="round" stroke-linejoin="round"/>
    <path d="M517.509 646.007C525.861 646.007 532.632 639.232 532.632 630.875C532.632 622.518 525.861 615.743 517.509 615.743C509.157 615.743 502.386 622.518 502.386 630.875C502.386 639.232 509.157 646.007 517.509 646.007Z" fill="#2D1A14"/>
    <path d="M483.939 595.124C492.291 595.124 499.062 588.35 499.062 579.993C499.062 571.636 492.291 564.861 483.939 564.861C475.587 564.861 468.816 571.636 468.816 579.993C468.816 588.35 475.587 595.124 483.939 595.124Z" fill="#2D1A14"/>
    <path d="M589.468 645.342C597.821 645.342 604.591 638.567 604.591 630.21C604.591 621.853 597.821 615.078 589.468 615.078C581.116 615.078 574.345 621.853 574.345 630.21C574.345 638.567 581.116 645.342 589.468 645.342Z" fill="#2D1A14"/>
    <path d="M619.881 595.124C628.233 595.124 635.004 588.35 635.004 579.993C635.004 571.636 628.233 564.861 619.881 564.861C611.528 564.861 604.757 571.636 604.757 579.993C604.757 588.35 611.528 595.124 619.881 595.124Z" fill="#2D1A14"/>
    <path d="M382.398 586.977C382.398 586.977 384.226 571.679 404.169 571.18" stroke="#B7A091" stroke-width="1.0586" stroke-miterlimit="10" stroke-linecap="round" stroke-linejoin="round"/>
    <path d="M618.385 495.521H595.783L557.56 434.662L557.893 570.681H487.928" stroke="#2D1A14" stroke-width="2.6466" stroke-miterlimit="10" stroke-linecap="round" stroke-linejoin="round"/>
    <path d="M631.846 504.002H619.05C613.233 504.002 608.414 499.18 608.414 493.36C608.414 487.54 613.233 482.718 619.05 482.718H631.846C637.663 482.718 642.482 487.54 642.482 493.36C642.482 499.18 637.663 504.002 631.846 504.002Z" fill="#2D1A14"/>
    <path d="M266.898 167.613C266.399 165.784 266.067 164.952 265.07 163.456C261.247 156.804 250.778 155.474 244.629 158.633C241.637 160.13 238.812 162.957 238.147 166.282C237.981 166.781 237.981 167.114 237.981 167.613H266.898Z" fill="#F5F5F3"/>
    <path d="M246.789 157.802C248.949 156.638 250.279 153.978 249.78 151.483H254.101C254.101 153.146 255.098 154.476 256.095 155.807C256.594 156.638 257.259 157.303 258.09 157.636C256.926 159.299 254.766 160.13 252.606 160.13C250.445 160.13 248.118 159.299 246.789 157.802Z" fill="#FF8772"/>
    <path d="M256.262 155.973C256.262 155.807 256.096 155.807 256.096 155.64C255.099 154.144 254.101 152.98 254.101 151.317H249.781C249.781 151.483 249.781 151.65 249.781 151.65C250.944 154.144 253.603 155.64 256.262 155.973Z" fill="#383138"/>
    <path d="M252.439 151.982C255.597 151.982 258.256 149.322 258.256 146.162V137.682C258.256 134.523 255.597 131.862 252.439 131.862C249.282 131.862 246.623 134.523 246.623 137.682V146.162C246.623 149.322 249.282 151.982 252.439 151.982Z" fill="#FF8772"/>
    <path d="M245.46 146.162C246.653 146.162 247.62 145.195 247.62 144.001C247.62 142.807 246.653 141.839 245.46 141.839C244.266 141.839 243.299 142.807 243.299 144.001C243.299 145.195 244.266 146.162 245.46 146.162Z" fill="#FF8772"/>
    <path d="M244.296 167.613C243.964 166.781 243.632 166.116 242.967 165.451C241.803 163.788 239.477 163.289 237.483 163.788C235.488 164.287 233.66 165.784 232.497 167.613H244.296Z" fill="#F5F5F3"/>
    <path d="M271.385 167.613C271.052 166.948 270.72 166.116 270.222 165.451C269.058 163.788 266.732 163.289 264.737 163.788C262.743 164.287 260.915 165.784 259.752 167.447H271.385V167.613Z" fill="#F5F5F3"/>
    <path d="M260.084 136.518C260.084 133.192 257.259 130.365 253.935 130.365H251.11C247.786 130.365 244.961 133.192 244.961 136.518C244.961 137.682 245.293 138.846 245.958 139.844H248.95C248.119 138.347 247.952 136.684 248.783 135.188C248.95 137.516 250.944 138.846 253.104 139.844H258.921C259.586 138.846 260.084 137.682 260.084 136.518Z" fill="#383138"/>
    <path d="M244.629 149.987C243.299 149.987 242.302 148.823 242.302 147.659C242.302 146.329 243.465 145.331 244.629 145.331C245.958 145.331 246.955 146.495 246.955 147.659C247.121 148.989 245.958 149.987 244.629 149.987Z" fill="#EAAE4E"/>
    <path d="M259.253 149.488C257.924 149.488 256.927 148.324 256.927 147.16C256.927 145.83 258.09 144.832 259.253 144.832C260.583 144.832 261.58 145.996 261.58 147.16C261.58 148.49 260.583 149.488 259.253 149.488Z" fill="#EAAE4E"/>
    <path d="M266.399 215.668C265.9 213.839 265.568 213.008 264.571 211.511C260.748 204.86 250.279 203.53 244.13 206.689C241.138 208.186 238.313 211.012 237.648 214.338C237.482 214.837 237.482 215.169 237.482 215.668H266.399Z" fill="#B9A6BC"/>
    <path d="M246.29 205.858C248.45 204.694 249.78 202.033 249.281 199.539H253.602C253.602 201.202 254.599 202.532 255.597 203.862C256.095 204.694 256.76 205.359 257.591 205.691C256.428 207.354 254.267 208.185 252.107 208.185C249.946 208.185 247.62 207.52 246.29 205.858Z" fill="#75291F"/>
    <path d="M255.763 204.195C255.763 204.028 255.597 204.028 255.597 203.862C254.6 202.366 253.603 201.202 253.603 199.539H249.282C249.282 199.705 249.282 199.871 249.282 199.871C250.445 202.199 253.104 203.696 255.763 204.195Z" fill="#383138"/>
    <path d="M252.107 200.038C255.431 200.038 258.09 197.377 258.09 194.052V185.405C258.09 182.079 255.431 179.419 252.107 179.419C248.783 179.419 246.124 182.079 246.124 185.405V194.052C246.124 197.377 248.783 200.038 252.107 200.038Z" fill="#75291F"/>
    <path d="M244.961 194.218C246.154 194.218 247.121 193.25 247.121 192.056C247.121 190.862 246.154 189.895 244.961 189.895C243.768 189.895 242.8 190.862 242.8 192.056C242.8 193.25 243.768 194.218 244.961 194.218Z" fill="#75291F"/>
    <path d="M243.797 215.668C243.465 214.837 243.133 214.172 242.468 213.507C241.305 211.844 238.978 211.345 236.984 211.844C234.99 212.343 233.161 213.839 231.998 215.668H243.797Z" fill="#B9A6BC"/>
    <path d="M270.886 215.668C270.554 215.003 270.221 214.172 269.723 213.507C268.559 211.844 266.233 211.345 264.239 211.844C262.244 212.343 260.416 213.839 259.253 215.502H270.886V215.668Z" fill="#B9A6BC"/>
    <path d="M257.924 184.74V177.59C257.924 175.262 256.095 173.432 253.769 173.432C251.442 173.432 249.614 175.262 249.614 177.59V184.74H257.924Z" fill="#383138"/>
    <path d="M249.78 184.573H254.433V183.077C254.433 181.081 253.104 179.252 251.11 178.754C248.451 178.255 245.958 180.25 245.958 182.911V190.061H246.623C248.285 190.061 249.614 188.73 249.614 187.068V184.906H249.78V184.573Z" fill="#383138"/>
    <path d="M317.419 167.779C316.92 165.95 316.422 165.118 315.591 163.456C311.768 156.638 300.966 155.308 294.817 158.467C291.66 160.13 289.001 162.79 288.17 166.449C288.004 166.948 288.004 167.28 288.004 167.779H317.419Z" fill="#FFE2B1"/>
    <path d="M296.978 157.968C299.138 156.804 300.468 154.144 299.969 151.65H304.29C304.29 153.312 305.287 154.643 306.284 155.973C306.783 156.804 307.448 157.469 308.279 157.802C307.115 159.465 304.955 160.296 302.794 160.296C300.634 160.296 298.307 159.631 296.978 157.968Z" fill="#FF8772"/>
    <path d="M306.451 156.305C306.451 156.139 306.284 156.139 306.284 155.973C305.287 154.476 304.29 153.312 304.29 151.65H299.969C299.969 151.816 299.969 151.982 299.969 151.982C301.133 154.31 303.625 155.807 306.451 156.305Z" fill="#383138"/>
    <path d="M302.628 152.149C305.952 152.149 308.611 149.488 308.611 146.162V137.516C308.611 134.19 305.952 131.53 302.628 131.53C299.305 131.53 296.646 134.19 296.646 137.516V146.162C296.812 149.488 299.471 152.149 302.628 152.149Z" fill="#FF8772"/>
    <path d="M308.611 143.668V137.516C308.611 134.19 305.952 131.53 302.628 131.53C299.305 131.53 296.646 134.19 296.646 137.516V140.01C299.969 143.502 304.456 144.998 308.611 143.668Z" fill="#EAAE4E"/>
    <path d="M302.628 134.855C305.841 134.855 308.445 132.249 308.445 129.035C308.445 125.821 305.841 123.215 302.628 123.215C299.416 123.215 296.812 125.821 296.812 129.035C296.812 132.249 299.416 134.855 302.628 134.855Z" fill="#EAAE4E"/>
    <path d="M295.648 146.328C296.841 146.328 297.809 145.361 297.809 144.167C297.809 142.973 296.841 142.005 295.648 142.005C294.455 142.005 293.488 142.973 293.488 144.167C293.488 145.361 294.455 146.328 295.648 146.328Z" fill="#FF8772"/>
    <path d="M294.485 167.779C294.152 166.948 293.82 166.283 293.155 165.617C291.992 163.955 289.665 163.456 287.671 163.955C285.677 164.453 283.849 165.95 282.685 167.779H294.485Z" fill="#FFE2B1"/>
    <path d="M321.573 167.779C321.241 167.114 320.909 166.283 320.41 165.617C319.247 163.955 316.92 163.456 314.926 163.955C312.932 164.453 311.104 165.95 309.94 167.613H321.573V167.779Z" fill="#FFE2B1"/>
    <path d="M320.743 215.668C320.244 213.839 319.579 213.008 318.582 211.345C313.929 204.527 300.634 203.197 292.989 206.356C289.167 208.019 285.843 210.68 284.846 214.338C284.68 214.837 284.68 215.169 284.68 215.668H320.743Z" fill="#FFE2B1"/>
    <path d="M297.477 205.691C299.637 204.527 300.967 201.867 300.468 199.373H304.789C304.789 201.035 305.786 202.366 306.783 203.696C307.282 204.527 307.946 205.192 308.777 205.525C307.614 207.188 305.454 208.019 303.293 208.019C301.133 208.186 298.806 207.354 297.477 205.691Z" fill="#FF8772"/>
    <path d="M306.949 204.028C306.949 203.862 306.783 203.862 306.783 203.696C305.786 202.199 304.789 201.035 304.789 199.373H300.468C300.468 199.539 300.468 199.705 300.468 199.705C301.631 202.199 304.29 203.53 306.949 204.028Z" fill="#383138"/>
    <path d="M303.293 200.038C306.617 200.038 309.276 197.377 309.276 194.052V185.405C309.276 182.079 306.617 179.419 303.293 179.419C299.969 179.419 297.31 182.079 297.31 185.405V194.052C297.31 197.211 299.969 200.038 303.293 200.038Z" fill="#FF8772"/>
    <path d="M305.952 190.227C304.789 190.726 304.124 191.557 302.794 191.724C300.8 191.89 299.471 189.229 299.969 187.567C300.966 184.407 305.952 184.573 308.943 184.74C308.611 181.747 306.118 179.419 303.127 179.419C299.803 179.419 297.144 182.079 297.144 185.405V194.052C297.144 197.377 299.803 200.038 303.127 200.038C306.451 200.038 309.11 197.377 309.11 194.052V190.892C308.445 190.061 306.617 190.061 305.952 190.227Z" fill="#383138"/>
    <path d="M296.147 194.218C297.34 194.218 298.307 193.25 298.307 192.056C298.307 190.862 297.34 189.894 296.147 189.894C294.954 189.894 293.986 190.862 293.986 192.056C293.986 193.25 294.954 194.218 296.147 194.218Z" fill="#FF8772"/>
    <path d="M303.293 184.075C304.955 183.742 306.617 184.241 308.278 184.573C310.771 185.072 313.264 185.239 315.591 184.573C317.917 183.908 320.244 182.412 321.407 180.25C322.571 178.088 322.404 175.095 320.909 173.266C319.247 171.437 316.089 170.938 314.261 172.601C312.766 173.931 312.267 175.927 311.104 177.423C309.94 178.587 308.278 179.419 306.617 179.252C305.121 179.086 303.625 178.255 302.13 178.421C300.135 178.587 298.307 180.416 298.473 182.412" fill="#383138"/>
    <path d="M294.984 215.668C294.651 214.837 294.319 214.172 293.654 213.507C292.491 211.844 290.164 211.345 288.17 211.844C286.176 212.343 284.348 213.839 283.184 215.668H294.984Z" fill="#FFE2B1"/>
    <path d="M322.072 215.668C321.74 215.003 321.407 214.172 320.909 213.507C319.745 211.844 317.419 211.345 315.425 211.844C313.43 212.343 311.602 213.839 310.439 215.502H322.072V215.668Z" fill="#FFE2B1"/>
    <path d="M298.972 187.4C300.8 187.234 302.462 187.899 303.792 189.063C305.121 190.227 305.786 192.056 305.786 193.719H299.304L298.972 187.4Z" fill="#383138"/>
    <path d="M329.883 224.814H226.015V247.428H329.883V224.814Z" fill="#04189D"/>
    <path d="M324.232 229.47H232.663V233.294H324.232V229.47Z" fill="#C3CAFD"/>
    <path d="M324.232 237.95H232.663V241.775H324.232V237.95Z" fill="#C3CAFD"/>
    <path d="M349.161 313.442H314.261C311.436 313.442 309.109 311.114 309.109 308.288C309.109 305.461 311.436 303.133 314.261 303.133H349.161C351.986 303.133 354.312 305.461 354.312 308.288C354.479 311.114 352.152 313.442 349.161 313.442Z" fill="#D4C4D6"/>
    <path d="M466.655 122.883C480.698 122.883 492.082 111.492 492.082 97.4414C492.082 83.3907 480.698 72.0002 466.655 72.0002C452.612 72.0002 441.229 83.3907 441.229 97.4414C441.229 111.492 452.612 122.883 466.655 122.883Z" fill="#FCA09E"/>
    <path d="M441.727 51.8801C443.887 63.6862 454.357 72.8317 466.821 72.8317C479.285 72.8317 489.755 63.8525 491.916 51.8801H441.727Z" fill="#FCA09E"/>
    <path d="M441.727 133.026C443.887 144.832 454.357 153.977 466.821 153.977C479.285 153.977 489.755 144.998 491.916 133.026H441.727Z" fill="#FCA09E"/>
    <path d="M441.727 152.315C443.887 164.121 454.357 173.266 466.821 173.266C479.285 173.266 489.755 164.287 491.916 152.315H441.727Z" fill="#FCA09E"/>
    <path d="M441.727 22.947C443.887 34.7531 454.357 43.8986 466.821 43.8986C479.285 43.8986 489.755 34.9193 491.916 22.947H441.727Z" fill="#FCA09E"/>
    <path d="M117.329 630.875C168.452 630.875 209.895 608.243 209.895 580.325C209.895 552.408 168.452 529.776 117.329 529.776C66.2058 529.776 24.7623 552.408 24.7623 580.325C24.7623 608.243 66.2058 630.875 117.329 630.875Z" fill="#BFD2FC"/>
    <path d="M120.985 480.722L183.305 398.911C183.305 398.911 118.824 283.678 54.1774 401.073L120.985 480.722Z" fill="#A8A539"/>
    <path d="M119.988 349.193C119.988 409.886 119.157 469.415 120.486 529.609" stroke="#211D1D" stroke-width="1.2947" stroke-miterlimit="10" stroke-linecap="round" stroke-linejoin="round"/>
    <path d="M68.4696 378.625C68.4696 378.625 111.014 433.664 120.985 480.722C120.985 480.722 119.323 407.392 88.5783 360.001" stroke="#211D1D" stroke-width="1.2947" stroke-miterlimit="10" stroke-linecap="round" stroke-linejoin="round"/>
    <path d="M175.993 388.602L120.985 480.722C120.985 480.722 130.125 403.734 153.89 365.655" stroke="#211D1D" stroke-width="1.2947" stroke-miterlimit="10" stroke-linecap="round" stroke-linejoin="round"/>
    <path d="M149.403 527.78L227.844 517.304C227.844 517.304 255.265 419.53 156.549 448.297L149.403 527.78Z" fill="#A8A539"/>
    <path d="M220.365 455.78C187.46 488.87 154.555 520.63 122.647 554.219" stroke="#211D1D" stroke-width="0.9953" stroke-miterlimit="10" stroke-linecap="round" stroke-linejoin="round"/>
    <path d="M176.326 443.641C176.326 443.641 169.678 496.685 149.403 527.78C149.403 527.78 188.457 487.041 197.431 444.473" stroke="#211D1D" stroke-width="0.9953" stroke-miterlimit="10" stroke-linecap="round" stroke-linejoin="round"/>
    <path d="M229.339 507.66L149.403 527.78C149.403 527.78 196.268 490.865 229.672 483.05" stroke="#211D1D" stroke-width="0.9953" stroke-miterlimit="10" stroke-linecap="round" stroke-linejoin="round"/>
    <path d="M81.9307 520.131L3.49013 509.655C3.49013 509.655 -23.9309 411.881 74.7847 440.648L81.9307 520.131Z" fill="#A8A539"/>
    <path d="M10.8022 448.131C43.7074 481.221 76.6126 512.981 108.521 546.57" stroke="#211D1D" stroke-width="0.9953" stroke-miterlimit="10" stroke-linecap="round" stroke-linejoin="round"/>
    <path d="M55.0084 436.159C55.0084 436.159 61.6559 489.203 81.9308 520.297C81.9308 520.297 42.8767 479.558 33.9026 436.99" stroke="#211D1D" stroke-width="0.9953" stroke-miterlimit="10" stroke-linecap="round" stroke-linejoin="round"/>
    <path d="M1.99436 500.011L81.9307 520.131C81.9307 520.131 35.0657 483.217 1.66199 475.401" stroke="#211D1D" stroke-width="0.9953" stroke-miterlimit="10" stroke-linecap="round" stroke-linejoin="round"/>
    <path d="M120.985 559.041C149.162 559.041 172.004 552.713 172.004 544.907C172.004 537.101 149.162 530.773 120.985 530.773C92.8075 530.773 69.9652 537.101 69.9652 544.907C69.9652 552.713 92.8075 559.041 120.985 559.041Z" fill="#2D1A14"/>
    <path d="M71.9596 611.919V646.007" stroke="#211D1D" stroke-width="1.2947" stroke-miterlimit="10" stroke-linecap="round" stroke-linejoin="round"/>
    <path d="M172.004 613.914V647.836" stroke="#211D1D" stroke-width="1.2947" stroke-miterlimit="10" stroke-linecap="round" stroke-linejoin="round"/>
    <path d="M72.6243 625.887H170.675" stroke="#211D1D" stroke-width="1.2947" stroke-miterlimit="10" stroke-linecap="round" stroke-linejoin="round"/>
  </g>
  <defs>
    <clipPath id="clip0">
      <rect width="694" height="649" fill="white"/>
    </clipPath>
  </defs>
</svg>
