<svg width="18" height="20" viewBox="0 0 18 20" fill="none" xmlns="http://www.w3.org/2000/svg">
  <path d="M16.3889 9.36008L2.8911 1.11114C2.77741 1.04166 2.64726 1.00372 2.51404 1.00123C2.38083 0.998735 2.24935 1.03177 2.13314 1.09695C2.01692 1.16212 1.92017 1.25708 1.85283 1.37205C1.7855 1.48702 1.75 1.61786 1.75 1.7511V18.249C1.75 18.3822 1.7855 18.513 1.85283 18.628C1.92017 18.743 2.01692 18.8379 2.13314 18.9031C2.24935 18.9683 2.38083 19.0013 2.51404 18.9988C2.64726 18.9963 2.77741 18.9584 2.8911 18.8889L16.3889 10.64C16.4985 10.573 16.5891 10.479 16.652 10.3669C16.7148 10.2548 16.7478 10.1285 16.7478 10C16.7478 9.87155 16.7148 9.74523 16.652 9.63317C16.5891 9.52111 16.4985 9.42707 16.3889 9.36008Z" stroke="#4CB8FF" stroke-width="2" stroke-linecap="round" stroke-linejoin="round"/>
</svg>
