<svg width="24" height="16" viewBox="0 0 24 16" fill="none" xmlns="http://www.w3.org/2000/svg">
  <path d="M8.25003 11C10.9424 11 13.125 8.81739 13.125 6.125C13.125 3.43261 10.9424 1.25 8.25003 1.25C5.55764 1.25 3.37503 3.43261 3.37503 6.125C3.37503 8.81739 5.55764 11 8.25003 11Z" stroke="white" stroke-width="2" stroke-miterlimit="10"/>
  <path d="M14.5699 1.43161C15.2404 1.24269 15.9436 1.19966 16.6322 1.3054C17.3207 1.41114 17.9786 1.66321 18.5616 2.04462C19.1445 2.42604 19.6389 2.92795 20.0115 3.51654C20.3842 4.10513 20.6263 4.76673 20.7217 5.45679C20.8171 6.14685 20.7635 6.84935 20.5646 7.51696C20.3656 8.18456 20.0259 8.80178 19.5683 9.32704C19.1107 9.8523 18.5459 10.2734 17.9118 10.562C17.2778 10.8506 16.5893 10.9999 15.8927 11" stroke="white" stroke-width="2" stroke-linecap="round" stroke-linejoin="round"/>
  <path d="M1.49963 14.5059C2.26101 13.4229 3.27178 12.539 4.44662 11.9288C5.62145 11.3186 6.92586 11.0001 8.24971 11C9.57356 10.9999 10.878 11.3184 12.0529 11.9285C13.2278 12.5386 14.2386 13.4225 15.0001 14.5054" stroke="white" stroke-width="2" stroke-linecap="round" stroke-linejoin="round"/>
  <path d="M15.8926 11C17.2166 10.999 18.5213 11.3171 19.6963 11.9273C20.8713 12.5375 21.8819 13.4218 22.6427 14.5054" stroke="white" stroke-width="2" stroke-linecap="round" stroke-linejoin="round"/>
</svg>
