<svg width="18" height="16" viewBox="0 0 18 16" fill="none" xmlns="http://www.w3.org/2000/svg">
<path d="M9 14.875C9 14.875 1.1875 10.5 1.1875 5.18751C1.18766 4.24855 1.51301 3.33863 2.10824 2.61244C2.70347 1.88626 3.53183 1.38863 4.45249 1.20418C5.37315 1.01972 6.32928 1.15982 7.15832 1.60066C7.98736 2.04149 8.63814 2.75585 9.00001 3.62227L8.99999 3.62228C9.36186 2.75585 10.0126 2.04149 10.8417 1.60066C11.6707 1.15983 12.6268 1.01973 13.5475 1.20418C14.4682 1.38863 15.2965 1.88625 15.8918 2.61244C16.487 3.33863 16.8123 4.24855 16.8125 5.18751C16.8125 10.5 9 14.875 9 14.875Z" stroke="#2D1A14" stroke-width="2" stroke-linecap="round" stroke-linejoin="round"/>
</svg>
