<svg width="20" height="20" viewBox="0 0 20 20" fill="none" xmlns="http://www.w3.org/2000/svg">
<path d="M10 15V18.75" stroke="#2D1A14" stroke-width="2" stroke-linecap="round" stroke-linejoin="round"/>
<path d="M16.7986 14.2425C16.6004 13.2833 16.0351 12.4395 15.2232 11.8914C15.148 11.8394 15.0851 11.7715 15.039 11.6926C14.9928 11.6137 14.9646 11.5255 14.9563 11.4345L14.1189 3.0628C14.1035 2.90857 14.0313 2.76559 13.9164 2.66159C13.8015 2.55759 13.652 2.5 13.497 2.5H6.50324C6.34825 2.5 6.19879 2.55759 6.08387 2.66159C5.96895 2.76559 5.89677 2.90857 5.88134 3.0628L5.04398 11.4345C5.03564 11.5255 5.00742 11.6137 4.9613 11.6926C4.91518 11.7715 4.85229 11.8394 4.77707 11.8914C3.96522 12.4395 3.39983 13.2833 3.20167 14.2425C3.1823 14.3337 3.18351 14.4281 3.20521 14.5188C3.22691 14.6095 3.26855 14.6942 3.3271 14.7667C3.38565 14.8393 3.45964 14.8978 3.54368 14.9382C3.62773 14.9786 3.71971 14.9997 3.81295 15H16.1873C16.2806 14.9997 16.3725 14.9786 16.4566 14.9382C16.5406 14.8978 16.6146 14.8393 16.6732 14.7667C16.7317 14.6942 16.7734 14.6095 16.7951 14.5188C16.8168 14.4281 16.818 14.3337 16.7986 14.2425Z" stroke="#2D1A14" stroke-width="2" stroke-linecap="round" stroke-linejoin="round"/>
</svg>
